#!OML:ASF G:\JayActor3\Patient Classification 1\Patient 1\Session 6\male.ASF
:FULLY-SPECIFIED
:DEGREES
2077
root 8.8624 16.1576 -2.92869 9.48584 -58.5924 -17.7413
lowerback 0.756143 -0.875242 4.34146
upperback -2.28375 -1.07908 0.298177
thorax -2.85023 -0.637845 -2.08955
lowerneck 7.47667 -7.5874 -5.36997
upperneck 3.19919 -10.9399 12.2716
head 0.702787 -5.6916 4.63327
rclavicle 3.79679e-014 -1.35174e-014
rhumerus -50.9809 10.6039 -98.0208
rradius 112.853
rwrist -5.69366
rhand -29.3614 -19.9984
rfingers 7.12502
rthumb -2.70078 -49.961
lclavicle 3.79679e-014 -1.35174e-014
lhumerus -48.1579 26.1952 65.5573
lradius 57.1623
lwrist -0.273405
lhand -56.4614 -35.3938
lfingers 7.12502
lthumb -28.7771 -7.59193
rfemur -2.12848 -11.5686 34.0259
rtibia 30.7912
rfoot -26.6859 -9.49569
rtoes 12.3096
lfemur -2.41986 1.89241 -4.69947
ltibia 30.1933
lfoot -21.112 -0.872919
ltoes 0.673068
2078
root 8.85494 16.1564 -2.94569 9.50635 -58.4852 -17.7699
lowerback 0.763384 -0.873676 4.32921
upperback -2.27129 -1.07705 0.29795
thorax -2.84101 -0.636118 -2.08302
lowerneck 7.54378 -7.65293 -5.41813
upperneck 2.99367 -11.0207 12.4736
head 0.652154 -5.74105 4.7082
rclavicle 6.22196e-014 1.03368e-014
rhumerus -50.8988 10.5081 -97.9138
rradius 113.048
rwrist -5.33539
rhand -29.3654 -20.0263
rfingers 7.12502
rthumb -2.70456 -49.9889
lclavicle 6.22196e-014 1.03368e-014
lhumerus -48.2528 26.2784 65.4285
lradius 57.1263
lwrist -0.282935
lhand -56.3731 -35.3771
lfingers 7.12502
lthumb -28.6927 -7.56095
rfemur -2.09301 -11.7668 34.099
rtibia 30.6955
rfoot -26.6501 -9.38861
rtoes 12.3732
lfemur -2.50906 1.8563 -4.58209
ltibia 30.2659
lfoot -21.0913 -0.928731
ltoes 0.565513
2079
root 8.84779 16.155 -2.96276 9.52578 -58.3868 -17.7998
lowerback 0.773223 -0.871126 4.31659
upperback -2.25559 -1.07362 0.298764
thorax -2.82978 -0.633568 -2.07526
lowerneck 7.59605 -7.71696 -5.46995
upperneck 2.79909 -11.0999 12.6705
head 0.607159 -5.78915 4.78132
rclavicle 8.92543e-014 8.74653e-015
rhumerus -50.8104 10.4173 -97.8048
rradius 113.241
rwrist -4.92117
rhand -29.3408 -20.0599
rfingers 7.12502
rthumb -2.68087 -50.0228
lclavicle 8.92543e-014 8.74653e-015
lhumerus -48.3367 26.3667 65.3034
lradius 57.0893
lwrist -0.278649
lhand -56.2596 -35.3158
lfingers 7.12502
lthumb -28.5843 -7.48134
rfemur -2.05707 -11.9535 34.1722
rtibia 30.6028
rfoot -26.6166 -9.28727
rtoes 12.4326
lfemur -2.59717 1.82116 -4.46934
ltibia 30.3418
lfoot -21.0742 -0.960394
ltoes 0.405122
2080
root 8.84126 16.1536 -2.97983 9.53757 -58.2935 -17.8235
lowerback 0.789821 -0.867703 4.30407
upperback -2.2379 -1.06875 0.297001
thorax -2.82026 -0.63032 -2.07018
lowerneck 7.63595 -7.78286 -5.52041
upperneck 2.61179 -11.1816 12.8646
head 0.566554 -5.83808 4.85264
rclavicle 7.51406e-014 2.46493e-014
rhumerus -50.7184 10.3265 -97.6958
rradius 113.434
rwrist -4.48448
rhand -29.2963 -20.0949
rfingers 7.12502
rthumb -2.6379 -50.0583
lclavicle 7.51406e-014 2.46493e-014
lhumerus -48.3981 26.4732 65.1787
lradius 57.0387
lwrist -0.274921
lhand -56.153 -35.2512
lfingers 7.12502
lthumb -28.4825 -7.39964
rfemur -2.02141 -12.1381 34.2398
rtibia 30.5139
rfoot -26.5829 -9.18424
rtoes 12.4903
lfemur -2.68444 1.78433 -4.3647
ltibia 30.4205
lfoot -21.0588 -0.978203
ltoes 0.238905
2081
root 8.83517 16.1519 -2.99709 9.55638 -58.205 -17.8586
lowerback 0.812719 -0.862365 4.29728
upperback -2.21825 -1.0609 0.295267
thorax -2.81221 -0.625705 -2.06829
lowerneck 7.68115 -7.84793 -5.57351
upperneck 2.41327 -11.2613 13.0696
head 0.522594 -5.88689 4.9283
rclavicle 1.41137e-014 3.97569e-015
rhumerus -50.6259 10.2353 -97.5904
rradius 113.63
rwrist -4.06617
rhand -29.2549 -20.1185
rfingers 7.12502
rthumb -2.59786 -50.0825
lclavicle 1.41137e-014 3.97569e-015
lhumerus -48.4403 26.5751 65.0658
lradius 56.9884
lwrist -0.254082
lhand -56.081 -35.1748
lfingers 7.12502
lthumb -28.4136 -7.31174
rfemur -1.98559 -12.3087 34.3156
rtibia 30.4274
rfoot -26.5523 -9.08731
rtoes 12.5625
lfemur -2.77187 1.7537 -4.25495
ltibia 30.5036
lfoot -21.0445 -0.98694
ltoes 0.0483755
